<?xml version="1.0" standalone="no"?>
<!DOCTYPE svg PUBLIC "-//W3C//DTD SVG 20010904//EN"
 "http://www.w3.org/TR/2001/REC-SVG-20010904/DTD/svg10.dtd">
<svg version="1.0" xmlns="http://www.w3.org/2000/svg"
 width="552.000000pt" height="552.000000pt" viewBox="0 0 552.000000 552.000000"
 preserveAspectRatio="xMidYMid meet">
<metadata>
Created by potrace 1.14, written by Peter Selinger 2001-2017
</metadata>
<g transform="translate(0.000000,552.000000) scale(0.100000,-0.100000)"
fill="#000000" stroke="none">
<path d="M2774 5046 c-4 -11 -12 -13 -29 -6 -15 6 -27 6 -30 0 -3 -6 -15 -6
-30 0 -17 7 -25 5 -29 -5 -4 -10 -17 -14 -46 -11 -22 2 -46 -1 -53 -7 -6 -7
-21 -12 -32 -11 -11 0 -27 -3 -36 -7 -8 -4 -27 -9 -42 -11 -14 -2 -29 -7 -33
-11 -4 -4 -22 -7 -41 -7 -18 0 -33 -5 -33 -11 0 -6 -8 -9 -18 -7 -10 3 -23 -1
-30 -9 -7 -7 -17 -11 -22 -8 -5 3 -25 -4 -46 -15 -20 -12 -39 -18 -42 -15 -3
3 -12 -1 -21 -9 -9 -8 -20 -16 -26 -17 -19 -4 -80 -34 -86 -43 -4 -5 -11 -6
-17 -2 -5 3 -13 -1 -16 -9 -3 -8 -9 -15 -13 -14 -15 2 -53 -13 -53 -22 0 -5
-9 -9 -20 -9 -11 0 -20 -5 -20 -11 0 -6 -6 -9 -13 -6 -7 3 -19 -4 -25 -14 -7
-10 -19 -19 -27 -19 -7 0 -20 -8 -27 -17 -7 -10 -20 -19 -28 -21 -8 -2 -20
-10 -26 -18 -6 -7 -17 -14 -24 -14 -7 0 -21 -10 -31 -22 -11 -11 -19 -17 -19
-12 0 4 -20 -12 -45 -36 -25 -24 -45 -40 -45 -36 0 5 -78 -69 -172 -164 -96
-96 -172 -179 -170 -187 2 -9 -1 -12 -7 -8 -6 3 -11 -1 -11 -11 0 -10 -3 -14
-6 -11 -8 7 -44 -36 -44 -52 0 -5 -6 -14 -13 -18 -16 -10 -77 -94 -77 -106 0
-6 -8 -16 -17 -23 -10 -7 -19 -16 -19 -21 -5 -26 -18 -53 -26 -53 -5 0 -7 -4
-4 -8 3 -5 -4 -18 -14 -30 -11 -12 -20 -28 -20 -37 0 -9 -4 -13 -10 -10 -5 3
-10 -3 -10 -14 0 -11 -5 -23 -10 -26 -6 -4 -8 -11 -5 -16 4 -5 3 -9 -2 -9 -9
0 -33 -48 -33 -66 0 -7 -9 -28 -19 -46 -10 -18 -22 -48 -26 -65 -4 -18 -11
-33 -16 -33 -6 0 -9 -8 -8 -17 4 -41 -1 -64 -13 -57 -8 5 -9 0 -5 -15 3 -14 0
-24 -8 -27 -8 -3 -12 -15 -9 -27 2 -11 -2 -24 -8 -28 -6 -4 -11 -26 -10 -48 1
-23 -3 -41 -8 -41 -6 0 -10 -20 -10 -45 0 -25 -4 -45 -8 -45 -5 0 -8 -20 -7
-45 0 -25 -4 -50 -10 -55 -6 -5 -10 -43 -10 -92 1 -46 -2 -88 -7 -95 -5 -6 -7
-78 -4 -160 7 -247 11 -300 22 -314 6 -8 10 -36 8 -64 -1 -30 2 -53 9 -57 7
-4 10 -21 9 -38 -2 -17 2 -38 8 -45 7 -8 10 -24 7 -35 -3 -10 1 -24 8 -30 8
-6 12 -22 9 -35 -2 -13 0 -27 6 -30 5 -3 10 -17 10 -29 0 -13 7 -29 15 -36 8
-7 12 -16 9 -21 -3 -6 3 -24 14 -42 10 -18 18 -40 16 -50 -1 -9 2 -17 7 -17 5
0 9 -9 9 -20 0 -11 5 -20 10 -20 6 0 10 -11 10 -25 0 -14 5 -25 11 -25 6 0 8
-7 5 -15 -3 -9 1 -18 9 -21 8 -4 15 -13 15 -21 0 -16 30 -74 43 -84 5 -3 7 -9
5 -12 -1 -4 5 -16 14 -27 10 -11 18 -27 18 -36 0 -9 5 -12 12 -8 8 5 9 0 6
-14 -4 -14 -1 -22 6 -22 7 0 20 -16 29 -35 9 -19 22 -35 28 -35 6 0 9 -6 6
-12 -2 -7 10 -25 27 -40 17 -15 28 -30 24 -33 -4 -4 6 -18 23 -32 16 -14 29
-30 29 -37 0 -6 9 -18 19 -26 11 -7 18 -17 15 -22 -3 -4 -1 -8 4 -8 5 0 79
-70 165 -156 86 -85 160 -154 164 -152 5 3 18 -6 30 -19 12 -13 19 -23 15 -23
-4 0 1 -5 10 -11 10 -5 20 -9 24 -8 3 0 19 -12 35 -27 16 -15 29 -24 29 -19 0
4 8 -2 19 -13 10 -12 21 -19 25 -15 3 4 13 -3 22 -15 8 -12 21 -22 28 -22 7 0
21 -9 31 -20 10 -11 22 -17 26 -14 5 3 9 0 9 -5 0 -6 9 -11 20 -11 11 0 20 -4
20 -9 0 -8 37 -24 53 -22 4 1 7 -4 7 -9 0 -6 9 -10 20 -10 11 0 20 -4 20 -9 0
-9 38 -24 53 -22 4 1 10 -6 13 -14 3 -8 11 -12 16 -9 6 4 13 2 17 -4 4 -7 16
-13 26 -15 62 -13 85 -20 85 -28 0 -4 9 -6 20 -4 12 2 23 -2 26 -9 3 -7 16
-12 30 -10 13 1 24 -2 24 -7 0 -5 11 -9 24 -9 14 0 28 -5 32 -11 3 -6 14 -9
24 -6 11 3 27 -1 37 -7 10 -7 32 -12 48 -11 17 0 38 -4 48 -11 10 -6 31 -10
47 -8 16 2 32 -1 35 -6 4 -6 11 -8 16 -5 5 4 9 2 9 -4 0 -6 11 -6 29 -1 15 4
34 5 40 0 7 -4 23 -5 37 -2 14 2 24 0 24 -7 0 -8 69 -11 235 -11 172 0 235 3
235 12 0 6 3 9 6 5 3 -3 17 -2 30 3 13 5 24 6 24 1 0 -8 59 -2 75 8 6 4 26 7
45 6 19 0 38 4 42 10 4 5 22 11 40 12 61 5 108 15 114 24 3 5 16 9 29 9 13 0
27 5 30 10 3 6 17 8 31 6 16 -3 27 0 31 10 3 7 9 12 14 9 4 -3 16 -1 26 4 23
12 53 23 78 28 10 2 22 8 26 15 4 6 12 7 18 4 6 -4 11 -3 11 2 0 5 25 20 55
33 30 13 55 27 55 32 0 4 5 5 10 2 6 -3 13 0 16 9 3 8 12 12 19 10 7 -3 22 2
34 12 11 10 28 19 38 20 10 2 19 8 21 14 3 9 41 30 62 34 3 1 17 12 32 25 27
24 27 25 8 38 -11 8 -20 21 -20 28 0 8 -9 20 -19 27 -10 6 -17 17 -14 24 2 6
-5 19 -17 27 -12 9 -19 20 -16 25 3 6 -1 12 -9 16 -8 3 -15 12 -15 21 0 8 -5
15 -11 15 -5 0 -7 5 -4 10 3 6 2 10 -3 10 -5 0 -17 17 -28 37 -25 48 -66 92
-72 75 -2 -7 -10 -12 -18 -12 -7 0 -19 -9 -26 -19 -6 -10 -18 -17 -25 -14 -7
3 -13 0 -13 -6 0 -6 -7 -11 -15 -11 -8 0 -24 -9 -35 -20 -12 -12 -25 -18 -30
-15 -6 4 -13 0 -16 -9 -3 -8 -19 -18 -35 -21 -16 -4 -29 -10 -29 -15 0 -5 -9
-7 -19 -5 -11 2 -25 -3 -31 -11 -7 -7 -16 -12 -20 -9 -5 3 -11 1 -15 -5 -3 -5
-17 -10 -31 -10 -17 0 -23 -4 -18 -12 5 -8 2 -9 -10 -5 -10 4 -19 1 -22 -7 -3
-7 -17 -12 -32 -11 -15 0 -38 -5 -51 -11 -14 -7 -28 -11 -33 -8 -4 3 -10 -1
-13 -8 -3 -8 -18 -13 -33 -12 -15 1 -31 -2 -37 -6 -5 -4 -23 -6 -40 -6 -16 1
-35 -4 -42 -10 -6 -6 -31 -10 -55 -9 -23 0 -46 -3 -50 -9 -9 -14 -449 -14
-462 0 -6 6 -31 10 -56 9 -25 -1 -53 2 -64 7 -10 6 -34 10 -52 10 -19 0 -37 4
-40 9 -3 5 -18 9 -33 9 -15 0 -31 3 -35 7 -3 4 -16 8 -28 10 -12 2 -27 8 -35
14 -7 6 -13 9 -13 6 0 -3 -16 1 -35 9 -19 8 -35 11 -35 8 0 -4 -7 -1 -15 6 -8
6 -19 9 -25 5 -5 -3 -13 1 -16 9 -3 9 -10 14 -14 11 -5 -3 -16 3 -26 12 -10
10 -20 17 -23 17 -3 -1 -17 3 -31 9 -14 6 -29 11 -33 11 -4 1 -12 8 -17 16 -5
8 -10 12 -10 7 0 -10 -72 28 -131 69 -27 19 -53 34 -59 34 -5 0 -10 3 -10 8 0
4 -18 18 -39 32 -22 13 -45 34 -52 46 -6 12 -17 20 -24 18 -13 -5 -55 32 -55
48 0 5 -3 7 -7 5 -5 -2 -28 20 -53 49 -25 29 -51 53 -59 53 -8 1 -12 3 -9 6 3
3 -21 31 -53 62 -33 31 -59 62 -59 68 0 7 -13 23 -29 36 -16 13 -27 27 -24 31
2 5 -10 22 -27 38 -18 17 -29 30 -24 30 4 0 -3 11 -15 24 -13 14 -20 29 -16
35 3 6 -1 11 -10 11 -11 0 -15 5 -12 14 3 8 -3 22 -14 32 -21 19 -54 82 -50
97 0 4 -5 10 -13 13 -8 3 -12 14 -8 27 3 12 1 19 -3 15 -10 -10 -37 42 -31 59
3 7 1 15 -5 19 -13 7 -33 55 -30 71 1 6 -3 14 -9 18 -5 3 -10 17 -10 31 0 13
-4 24 -10 24 -5 0 -8 14 -6 31 2 19 -1 32 -9 36 -8 2 -12 15 -9 28 2 13 0 27
-6 30 -5 3 -10 28 -10 55 0 27 -5 52 -10 55 -6 4 -10 12 -9 18 4 35 -2 117 -9
113 -10 -6 -10 347 0 354 4 3 8 36 9 73 1 37 6 70 11 73 4 3 8 23 8 44 0 21 4
41 9 44 4 3 8 20 7 38 -1 18 4 39 11 46 7 7 10 19 7 27 -4 8 -2 15 4 15 9 0
16 25 26 84 1 11 8 22 14 24 7 2 10 8 7 13 -3 4 3 27 15 51 11 23 20 50 20 60
0 10 5 18 11 18 5 0 8 4 5 9 -3 5 1 14 9 21 8 7 12 16 9 21 -3 5 2 12 10 15 9
3 13 10 10 15 -3 6 0 16 6 24 7 8 9 15 4 15 -5 0 1 7 12 15 12 8 27 29 34 47
7 18 22 43 33 56 11 12 17 22 13 22 -5 0 6 14 24 30 18 17 30 33 27 36 -6 6 6
21 91 111 27 29 47 55 44 58 -3 3 -1 5 5 5 6 0 52 43 103 95 51 52 97 92 102
89 4 -3 11 2 14 10 3 9 10 14 14 11 5 -3 11 4 15 15 3 11 13 20 20 20 8 0 25
11 39 25 14 14 32 25 41 25 8 0 15 4 15 10 0 10 60 45 73 42 4 -1 7 2 7 6 0
11 80 56 80 45 0 -4 5 -1 10 7 5 8 13 16 17 16 27 5 53 18 53 26 0 6 6 8 14 5
8 -3 17 1 20 9 3 9 10 13 15 9 5 -3 29 3 53 14 39 18 58 25 80 30 4 1 22 8 40
15 18 8 41 12 51 11 9 -2 17 1 17 6 0 5 15 9 34 9 19 0 37 4 40 8 3 5 22 9 42
10 20 1 41 5 48 10 6 5 29 8 51 7 22 -1 54 3 70 10 37 14 379 12 415 -2 14 -6
48 -9 77 -7 35 2 53 -1 56 -10 4 -9 15 -12 32 -8 15 2 36 0 48 -6 20 -10 56
-19 99 -26 9 -1 22 -7 30 -13 7 -6 21 -9 31 -8 9 2 17 -1 17 -6 0 -5 11 -9 24
-9 14 0 28 -4 31 -10 3 -5 17 -10 31 -10 13 0 24 -5 24 -11 0 -5 4 -8 9 -5 5
3 14 -1 21 -9 7 -8 16 -12 21 -9 5 3 9 0 9 -5 0 -6 9 -11 20 -11 11 0 20 -5
20 -10 0 -6 11 -8 25 -6 16 3 25 0 25 -8 0 -7 19 -21 43 -32 23 -10 45 -23 49
-28 4 -6 10 -7 14 -3 4 4 13 -2 21 -13 8 -11 20 -20 28 -20 7 0 15 -5 17 -12
5 -13 52 27 56 47 1 6 9 18 17 28 8 9 15 20 15 23 0 8 44 69 53 72 4 2 4 8 1
13 -3 6 4 18 16 29 12 10 21 22 21 27 -1 4 6 16 14 26 8 9 15 22 15 27 0 6 4
10 9 10 15 0 22 32 10 46 -7 8 -28 22 -48 31 -20 9 -38 20 -41 24 -3 4 -30 20
-60 35 -30 15 -58 31 -61 36 -3 6 -8 9 -10 7 -9 -5 -55 15 -66 30 -7 9 -13 13
-13 9 0 -4 -15 1 -33 11 -17 10 -40 17 -49 15 -9 -1 -19 5 -22 13 -3 8 -10 12
-15 8 -5 -3 -12 -1 -16 5 -3 5 -17 10 -31 10 -13 0 -24 4 -24 8 0 4 -10 9 -22
9 -13 1 -24 6 -26 11 -2 6 -11 8 -21 5 -10 -3 -22 0 -25 6 -4 6 -18 11 -32 11
-13 0 -24 5 -24 10 0 6 -15 10 -34 10 -19 0 -37 4 -40 9 -4 5 -14 8 -24 6 -9
-1 -28 3 -42 10 -14 6 -39 10 -57 8 -18 -1 -38 3 -45 11 -7 7 -22 10 -31 7
-24 -9 -87 -1 -87 10 0 5 -115 9 -260 9 -218 0 -262 -2 -266 -14z"/>
<path d="M4544 4587 c-12 -12 -25 -32 -29 -45 -3 -12 -11 -20 -16 -17 -5 4 -9
-1 -9 -11 0 -9 -9 -25 -21 -35 -11 -10 -18 -22 -15 -27 3 -6 0 -12 -8 -15 -8
-3 -22 -22 -31 -41 -10 -20 -21 -36 -26 -36 -5 0 -9 -6 -9 -13 0 -7 -9 -20
-20 -30 -12 -10 -18 -22 -15 -27 3 -5 -4 -14 -15 -20 -11 -6 -18 -15 -16 -19
3 -4 -4 -17 -14 -29 -11 -12 -20 -28 -20 -37 0 -9 -4 -14 -9 -11 -8 6 -21 -14
-27 -42 -3 -16 23 -42 42 -42 8 0 14 -4 14 -10 0 -5 13 -16 30 -25 28 -14 31
-14 49 4 10 10 22 28 25 39 4 11 14 23 22 26 8 3 13 10 9 16 -3 5 3 15 15 22
11 7 20 21 20 30 0 10 4 18 9 18 5 0 13 10 17 23 4 12 10 24 15 27 12 8 99
140 99 150 0 5 9 14 20 20 11 6 18 16 14 21 -3 6 3 18 14 28 12 9 20 25 18 35
-3 22 -45 68 -55 61 -4 -2 -14 5 -21 16 -18 24 -30 23 -56 -4z"/>
<path d="M2847 4307 c-1 -5 -27 -10 -58 -11 -30 -1 -60 -6 -68 -10 -7 -5 -25
-10 -39 -11 -62 -8 -84 -13 -94 -23 -6 -6 -16 -8 -23 -6 -7 3 -16 1 -20 -5 -3
-6 -20 -11 -36 -11 -18 0 -28 -4 -24 -10 3 -5 -2 -10 -13 -10 -10 0 -22 -3
-26 -7 -3 -4 -12 -8 -19 -9 -29 -5 -67 -24 -67 -34 0 -6 -4 -9 -10 -5 -11 7
-51 -14 -63 -32 -4 -7 -17 -13 -27 -13 -11 0 -20 -4 -20 -10 0 -5 -6 -10 -14
-10 -8 0 -22 -10 -30 -22 -9 -12 -18 -19 -22 -16 -3 4 -20 -7 -36 -23 -17 -16
-33 -27 -36 -25 -2 3 -33 -25 -68 -61 -35 -37 -64 -63 -64 -58 0 4 -9 0 -20
-10 -11 -10 -20 -22 -20 -28 0 -5 -27 -36 -60 -68 -33 -32 -60 -63 -60 -69 0
-6 -11 -21 -25 -34 -14 -13 -25 -31 -25 -40 0 -10 -4 -15 -9 -12 -9 6 -26 -22
-23 -36 1 -5 -2 -8 -7 -8 -7 0 -84 -133 -86 -150 -1 -3 -12 -25 -25 -50 -13
-25 -25 -49 -25 -55 -5 -33 -19 -76 -26 -81 -5 -3 -9 -16 -9 -30 0 -13 -4 -24
-8 -24 -4 0 -8 -18 -8 -41 0 -22 -5 -44 -10 -47 -5 -4 -9 -20 -8 -37 0 -16 -4
-38 -9 -49 -5 -10 -9 -54 -9 -97 0 -44 -3 -77 -7 -75 -4 3 -8 -33 -9 -79 0
-47 3 -87 8 -90 5 -3 9 -42 9 -86 0 -44 4 -85 9 -92 5 -7 8 -27 7 -45 -1 -20
4 -36 11 -39 7 -3 11 -17 9 -34 -2 -16 0 -29 5 -29 6 0 10 -14 10 -30 0 -17 4
-38 9 -48 9 -17 20 -45 21 -60 1 -4 8 -14 16 -23 8 -9 11 -18 8 -21 -3 -3 6
-29 20 -57 15 -28 27 -54 27 -58 1 -5 9 -19 18 -33 9 -14 23 -37 31 -52 7 -16
17 -28 21 -28 5 0 6 -7 3 -15 -4 -10 0 -15 11 -15 9 0 13 -4 10 -10 -3 -5 5
-21 19 -35 15 -14 26 -30 26 -34 0 -4 12 -21 27 -37 15 -16 28 -32 28 -36 0
-11 177 -188 187 -188 6 0 22 -13 38 -30 15 -16 29 -28 31 -25 3 2 22 -12 44
-31 22 -19 46 -34 53 -34 7 0 22 -9 34 -20 12 -10 24 -17 28 -15 5 3 11 -2 14
-10 3 -8 9 -14 13 -13 4 1 31 -9 58 -22 28 -13 53 -23 58 -22 4 1 7 -2 7 -6 0
-11 46 -32 70 -32 11 0 20 -5 20 -11 0 -7 10 -9 24 -7 16 3 27 0 31 -10 3 -8
8 -12 12 -9 3 3 17 0 32 -7 14 -7 35 -12 46 -10 10 1 24 -1 30 -5 12 -10 70
-20 141 -25 28 -2 58 -7 65 -12 20 -12 260 -12 256 0 -2 6 -28 11 -57 12 -30
0 -55 5 -57 10 -2 5 -24 8 -50 7 -26 -1 -52 2 -58 7 -6 5 -23 7 -37 6 -15 -2
-29 3 -32 10 -3 7 -15 11 -27 9 -13 -3 -28 0 -34 5 -6 5 -21 11 -33 13 -12 2
-25 6 -28 10 -4 4 -18 7 -31 7 -12 0 -23 5 -23 11 0 6 -7 9 -15 5 -8 -3 -21 1
-29 9 -7 8 -17 11 -20 7 -4 -3 -10 -2 -14 3 -9 12 -84 49 -95 47 -4 -1 -10 4
-13 12 -3 8 -12 12 -20 9 -8 -3 -14 0 -14 6 0 6 -4 11 -10 11 -13 0 -116 81
-160 125 -19 19 -38 35 -42 35 -13 0 -48 34 -48 46 0 6 -23 33 -50 60 -28 27
-50 53 -50 59 0 5 -13 23 -30 38 -16 16 -29 31 -27 35 1 4 -4 14 -10 22 -45
54 -59 77 -56 88 3 6 0 12 -6 12 -6 0 -11 7 -11 15 0 8 -4 15 -10 15 -5 0 -10
9 -10 20 0 11 -5 20 -11 20 -6 0 -9 6 -6 14 3 8 2 16 -4 18 -5 2 -11 14 -14
27 -2 13 -11 33 -18 45 -8 11 -13 31 -12 44 1 12 -4 22 -10 22 -8 0 -12 12
-10 30 1 16 -3 34 -10 40 -7 6 -11 20 -8 30 3 11 0 20 -6 20 -7 0 -11 20 -11
49 0 28 -4 52 -9 55 -4 3 -7 29 -6 58 1 29 -3 62 -10 73 -14 25 -13 247 1 252
6 2 9 32 7 73 -1 38 2 72 7 75 6 3 10 24 10 45 0 21 4 41 9 44 5 3 8 19 7 36
-1 16 3 31 10 34 7 3 11 13 10 22 -2 10 3 29 10 43 7 13 11 28 8 33 -3 4 -1 8
4 8 10 0 23 33 26 63 0 10 7 21 14 26 8 5 14 12 14 17 0 5 8 27 18 49 10 22
18 44 18 48 1 5 9 16 19 25 10 9 25 31 33 47 8 17 21 36 28 43 6 7 12 18 12
24 0 6 16 26 35 45 19 19 35 38 35 42 0 12 211 223 245 245 17 11 34 25 38 33
4 7 13 13 20 13 7 0 26 14 44 30 18 17 37 30 42 30 6 0 11 5 11 11 0 5 5 7 11
4 5 -4 18 3 28 14 10 12 32 24 50 27 17 4 31 13 31 21 0 8 4 12 10 8 9 -6 50
13 61 29 4 5 16 6 28 3 14 -3 21 0 21 8 0 9 9 12 25 9 14 -2 25 -1 25 4 0 4
21 14 48 21 26 8 52 17 57 21 6 3 21 6 35 5 14 0 28 4 32 9 3 5 22 9 42 8 19
-1 38 3 41 8 3 6 41 10 85 10 104 0 112 17 28 60 -33 17 -63 29 -66 26 -3 -3
-12 0 -20 6 -17 14 -240 18 -245 5z"/>
<path d="M4345 1470 c-4 -6 -10 -8 -14 -6 -4 3 -14 -4 -21 -15 -8 -10 -20 -19
-28 -19 -37 0 -47 -46 -18 -79 9 -10 16 -22 16 -27 0 -5 9 -16 19 -24 11 -7
17 -18 14 -23 -3 -6 1 -15 9 -21 8 -6 23 -26 33 -43 11 -18 23 -33 28 -33 4 0
6 -4 3 -9 -3 -4 3 -16 14 -26 11 -10 20 -24 20 -30 0 -7 7 -15 15 -19 8 -3 15
-14 15 -23 0 -10 9 -25 20 -33 11 -8 20 -22 20 -31 0 -9 7 -19 15 -23 8 -3 15
-10 15 -16 0 -5 8 -19 18 -30 9 -11 17 -24 17 -29 0 -4 8 -15 18 -25 9 -10 17
-23 17 -29 0 -7 9 -18 20 -25 12 -7 18 -16 16 -21 -10 -16 38 -51 62 -44 12 3
22 9 22 14 0 5 16 17 35 26 27 13 35 23 35 44 0 15 -7 29 -15 33 -8 3 -15 13
-15 23 0 10 -9 24 -20 31 -11 7 -20 18 -20 26 0 7 -9 21 -20 31 -11 10 -18 20
-15 23 2 3 -5 13 -16 23 -12 10 -18 22 -15 27 3 4 -4 15 -15 22 -10 8 -19 19
-19 26 0 6 -9 19 -20 29 -10 9 -18 20 -17 24 2 7 -29 53 -55 81 -9 10 -13 21
-10 25 4 4 -1 11 -11 17 -10 5 -22 19 -28 31 -13 32 -32 60 -52 78 -10 9 -16
21 -15 25 3 8 -37 54 -46 54 -3 0 -8 -5 -11 -10z"/>
</g>
</svg>
